<?xml version="1.0" encoding="UTF-8"?>
<!DOCTYPE svg PUBLIC "-//W3C//DTD SVG 1.1//EN" "http://www.w3.org/Graphics/SVG/1.1/DTD/svg11.dtd">
<!-- Creator: CorelDRAW X7 -->
<svg xmlns="http://www.w3.org/2000/svg" xml:space="preserve" width="9.41604in" height="5.07172in" version="1.1" style="shape-rendering:geometricPrecision; text-rendering:geometricPrecision; image-rendering:optimizeQuality; fill-rule:evenodd; clip-rule:evenodd"
viewBox="0 0 9413 5070"
 xmlns:xlink="http://www.w3.org/1999/xlink">
 <defs>
  <style type="text/css">
   <![CDATA[
    .str0 {stroke:#FEFEFE;stroke-width:13.8854}
    .str13 {stroke:#FEFEFE;stroke-width:13.8854}
    .str12 {stroke:#FEFEFE;stroke-width:6.94272}
    .str14 {stroke:#2D57A7;stroke-width:6.94272}
    .str15 {stroke:#2D57A7;stroke-width:27.8338}
    .str1 {stroke:#FEFEFE;stroke-width:5.87218;stroke-linecap:round}
    .str3 {stroke:#FEFEFE;stroke-width:5.87218;stroke-linecap:round}
    .str5 {stroke:#FEFEFE;stroke-width:5.87218;stroke-linecap:round}
    .str2 {stroke:#FEFEFE;stroke-width:5.87218;stroke-linecap:round}
    .str8 {stroke:#FEFEFE;stroke-width:5.87218;stroke-linecap:round}
    .str11 {stroke:#FEFEFE;stroke-width:5.87218;stroke-linecap:round}
    .str4 {stroke:#FEFEFE;stroke-width:5.87218;stroke-linecap:round}
    .str10 {stroke:#FEFEFE;stroke-width:5.87218;stroke-linecap:round}
    .str7 {stroke:#FEFEFE;stroke-width:5.87218;stroke-linecap:round}
    .str6 {stroke:#FEFEFE;stroke-width:5.87218;stroke-linecap:round}
    .str9 {stroke:#FEFEFE;stroke-width:5.87218;stroke-linecap:round}
    .fil3 {fill:none}
    .fil1 {fill:none;fill-rule:nonzero}
    .fil4 {fill:#2D57A7}
    .fil6 {fill:#2D57A7}
    .fil5 {fill:#A72D2D;fill-rule:nonzero}
    .fil2 {fill:#2D57A7;fill-rule:nonzero}
    .fil7 {fill:url(#id0)}
    .fil0 {fill:url(#id1)}
   ]]>
  </style>
  <radialGradient id="id0" gradientUnits="userSpaceOnUse" gradientTransform="matrix(0.70356 0.322858 -0.202944 0.601999 2284 490)" cx="4411.43" cy="4808.56" r="2585.74" fx="4411.43" fy="4808.56">
   <stop offset="0" style="stop-opacity:1; stop-color:#D24141"/>
   <stop offset="1" style="stop-opacity:1; stop-color:#A72D2D"/>
  </radialGradient>
  <radialGradient id="id1" gradientUnits="userSpaceOnUse" gradientTransform="matrix(0.70356 0.406044 -0.202944 0.757104 1599 -1458)" xlink:href="#id0" cx="4431.41" cy="1406.76" r="2825.62" fx="4431.41" fy="1406.76">
  </radialGradient>
 </defs>
 <g id="Layer_x0020_1">
  <metadata id="CorelCorpID_0Corel-Layer"/>
  <path class="fil0 str0" d="M2042 1757c332,-1042 1300,-1750 2394,-1750 1081,0 2042,694 2385,1718l-4779 32z"/>
  <g>
   <path class="fil1 str1" d="M285 3700c-8,0 -14,-7 -14,-15 0,-8 6,-15 14,-15l1027 0c8,0 14,7 14,15 0,8 -6,15 -14,15l-1027 0z"/>
   <path id="1" class="fil2" d="M285 3700c-8,0 -14,-7 -14,-15 0,-8 6,-15 14,-15l1027 0c8,0 14,7 14,15 0,8 -6,15 -14,15l-1027 0z"/>
  </g>
  <g>
   <path class="fil1 str2" d="M245 3800c-8,0 -14,-6 -14,-14 0,-7 6,-13 14,-13l952 0c8,0 14,6 14,13 0,8 -6,14 -14,14l-952 0z"/>
   <path id="1" class="fil2" d="M245 3800c-8,0 -14,-6 -14,-14 0,-7 6,-13 14,-13l952 0c8,0 14,6 14,13 0,8 -6,14 -14,14l-952 0z"/>
  </g>
  <g>
   <path class="fil1 str3" d="M553 3920c-6,0 -10,-6 -10,-14 0,-7 4,-13 10,-13l728 0c6,0 10,6 10,13 0,8 -4,14 -10,14l-728 0z"/>
   <path id="1" class="fil2" d="M553 3920c-6,0 -10,-6 -10,-14 0,-7 4,-13 10,-13l728 0c6,0 10,6 10,13 0,8 -4,14 -10,14l-728 0z"/>
  </g>
  <g>
   <path class="fil1 str4" d="M196 4122c-19,0 -34,-13 -34,-29 0,-17 15,-30 34,-30l1169 0c18,0 33,13 33,30 0,16 -15,29 -33,29l-1169 0z"/>
   <path id="1" class="fil2" d="M196 4122c-19,0 -34,-13 -34,-29 0,-17 15,-30 34,-30l1169 0c18,0 33,13 33,30 0,16 -15,29 -33,29l-1169 0z"/>
  </g>
  <g>
   <path class="fil1 str5" d="M353 4204c-12,0 -21,-10 -21,-23 0,-13 9,-24 21,-24l1090 0c12,0 22,11 22,24 0,13 -10,23 -22,23l-1090 0z"/>
   <path id="1" class="fil2" d="M353 4204c-12,0 -21,-10 -21,-23 0,-13 9,-24 21,-24l1090 0c12,0 22,11 22,24 0,13 -10,23 -22,23l-1090 0z"/>
  </g>
  <g>
   <path class="fil3 str6" d="M1679 3454c222,0 402,180 402,402 0,222 -180,402 -402,402 -222,0 -402,-180 -402,-402 0,-222 180,-402 402,-402zm0 231c95,0 171,77 171,171 0,95 -76,171 -171,171 -94,0 -171,-76 -171,-171 0,-94 77,-171 171,-171z"/>
   <path id="1" class="fil4" d="M1679 3454c222,0 402,180 402,402 0,222 -180,402 -402,402 -222,0 -402,-180 -402,-402 0,-222 180,-402 402,-402zm0 231c95,0 171,77 171,171 0,95 -76,171 -171,171 -94,0 -171,-76 -171,-171 0,-94 77,-171 171,-171z"/>
  </g>
  <g>
   <path class="fil1 str7" d="M17 3800c-8,0 -14,-6 -14,-14 0,-7 6,-13 14,-13l152 0c7,0 14,6 14,13 0,8 -7,14 -14,14l-152 0z"/>
   <path id="1" class="fil2" d="M17 3800c-8,0 -14,-6 -14,-14 0,-7 6,-13 14,-13l152 0c7,0 14,6 14,13 0,8 -7,14 -14,14l-152 0z"/>
  </g>
  <g>
   <path class="fil1 str8" d="M296 3923c-7,0 -13,-6 -13,-13 0,-8 6,-14 13,-14l153 0c7,0 13,6 13,14 0,7 -6,13 -13,13l-153 0z"/>
   <path id="1" class="fil2" d="M296 3923c-7,0 -13,-6 -13,-13 0,-8 6,-14 13,-14l153 0c7,0 13,6 13,14 0,7 -6,13 -13,13l-153 0z"/>
  </g>
  <g>
   <path class="fil1 str9" d="M82 3923c-7,0 -13,-6 -13,-13 0,-8 6,-14 13,-14l153 0c7,0 13,6 13,14 0,7 -6,13 -13,13l-153 0z"/>
   <path id="1" class="fil2" d="M82 3923c-7,0 -13,-6 -13,-13 0,-8 6,-14 13,-14l153 0c7,0 13,6 13,14 0,7 -6,13 -13,13l-153 0z"/>
  </g>
  <g>
   <path class="fil1 str10" d="M84 4204c-12,0 -22,-10 -22,-23 0,-13 10,-24 22,-24l189 0c12,0 21,11 21,24 0,13 -9,23 -21,23l-189 0z"/>
   <path id="1" class="fil2" d="M84 4204c-12,0 -22,-10 -22,-23 0,-13 10,-24 22,-24l189 0c12,0 21,11 21,24 0,13 -9,23 -21,23l-189 0z"/>
  </g>
  <g>
   <path class="fil1 str11" d="M58 4104c-8,0 -14,-6 -14,-13 0,-8 6,-14 14,-14l82 0c8,0 14,6 14,14 0,7 -6,13 -14,13l-82 0z"/>
   <path id="1" class="fil2" d="M58 4104c-8,0 -14,-6 -14,-13 0,-8 6,-14 14,-14l82 0c8,0 14,6 14,14 0,7 -6,13 -14,13l-82 0z"/>
  </g>
  <path class="fil4 str12" d="M8747 3454c222,0 403,180 403,402 0,222 -181,402 -403,402 -222,0 -402,-180 -402,-402 0,-222 180,-402 402,-402zm0 231c95,0 171,77 171,171 0,95 -76,171 -171,171 -94,0 -171,-76 -171,-171 0,-94 77,-171 171,-171z"/>
  <path class="fil5 str13" d="M839 2037c-21,0 -38,-15 -38,-33 0,-19 17,-34 38,-34l6317 0 -14 67 -6303 0z"/>
  <path class="fil6" d="M1448 3397l53 -1 5339 34c119,-554 231,-1082 352,-1639l-6714 0c-21,0 -38,-15 -38,-34 0,-19 17,-34 38,-34l6765 0c4,0 8,1 11,2l11 0c44,3 266,198 214,379 426,37 771,255 1029,562 31,-5 50,-4 82,-9 29,58 62,95 91,152 -186,0 -387,0 -574,0 -3,41 -7,82 -10,122 41,58 81,115 122,172 441,-51 846,-7 1194,185 -13,180 -25,360 -38,541 -52,0 -103,0 -154,0 -74,-571 -832,-635 -960,-11 -369,0 -738,0 -1107,0 29,-81 58,-163 87,-244 -144,0 -288,0 -432,0l1 -5 -4776 -10c-199,-152 -419,-161 -650,-43l64 -119z"/>
  <g>
   <path class="fil5" d="M1458 3423c-7,0 -12,-5 -12,-10 0,-6 5,-11 12,-11l0 21zm7026 24l-7026 -24 0 -21 7026 24 0 21zm0 -21c7,0 12,5 12,11 0,5 -6,10 -12,10l0 -21z"/>
  </g>
  <path class="fil7 str0" d="M2225 3790l4373 62c-463,753 -1284,1211 -2168,1211 -910,0 -1750,-485 -2205,-1273z"/>
  <g>
   <path class="fil2 str14" d="M3075 3203l0 -153 21 0 0 153 -21 0zm68 0l0 -153 21 0 80 120 0 -120 19 0 0 153 -20 0 -81 -120 0 120 -19 0zm166 0l0 -153 21 0 80 120 0 -120 20 0 0 153 -21 0 -80 -120 0 120 -20 0zm160 -74c0,-26 7,-46 21,-60 13,-14 31,-21 53,-21 14,0 26,3 38,10 11,6 20,16 26,28 6,12 9,26 9,41 0,15 -3,29 -10,42 -6,12 -15,21 -26,27 -12,7 -24,10 -38,10 -14,0 -27,-4 -38,-11 -11,-7 -20,-16 -26,-28 -6,-12 -9,-25 -9,-38zm21 0c0,19 5,33 15,44 10,10 22,15 37,15 16,0 28,-5 38,-16 10,-10 15,-25 15,-45 0,-13 -2,-23 -7,-33 -4,-9 -10,-16 -18,-21 -8,-5 -17,-8 -27,-8 -15,0 -27,5 -37,15 -11,10 -16,26 -16,49zm207 74l-59 -153 22 0 40 111c3,9 6,18 8,25 2,-8 5,-16 8,-25l41 -111 21 0 -60 153 -21 0zm78 0l59 -153 22 0 63 153 -23 0 -18 -46 -65 0 -16 46 -22 0zm44 -63l52 0 -15 -42c-5,-13 -9,-24 -11,-32 -3,10 -5,20 -9,29l-17 45zm150 63l0 -135 -50 0 0 -18 121 0 0 18 -50 0 0 135 -21 0zm104 0l0 -153 111 0 0 18 -90 0 0 47 84 0 0 18 -84 0 0 52 94 0 0 18 -115 0zm157 0l0 -21 21 0 0 21c0,8 -1,14 -4,19 -3,5 -7,9 -13,12l-5 -9c4,-1 7,-4 8,-7 2,-4 3,-8 4,-15l-11 0z"/>
   <path class="fil2 str14" d="M4356 3203l0 -153 20 0 0 153 -20 0zm68 0l0 -153 20 0 81 120 0 -120 19 0 0 153 -21 0 -80 -120 0 120 -19 0zm205 0l0 -135 -50 0 0 -18 121 0 0 18 -51 0 0 135 -20 0zm104 0l0 -153 110 0 0 18 -90 0 0 47 85 0 0 18 -85 0 0 52 94 0 0 18 -114 0zm225 -60l0 -18 65 0 0 57c-10,8 -20,14 -31,18 -10,4 -21,6 -32,6 -15,0 -29,-3 -41,-10 -12,-6 -22,-16 -28,-28 -6,-12 -9,-26 -9,-41 0,-14 3,-28 9,-41 6,-13 15,-23 27,-29 12,-6 25,-9 40,-9 11,0 21,1 30,5 9,4 16,9 21,15 5,6 9,15 12,25l-18 5c-3,-8 -6,-14 -9,-18 -3,-5 -8,-8 -15,-11 -6,-3 -13,-4 -21,-4 -9,0 -17,1 -24,4 -6,3 -12,7 -16,11 -4,5 -7,10 -10,15 -3,10 -5,20 -5,31 0,14 2,25 7,35 4,9 11,16 20,20 9,5 19,7 29,7 8,0 17,-2 25,-5 9,-4 15,-7 19,-11l0 -29 -45 0zm107 60l0 -153 68 0c14,0 24,2 31,4 7,3 13,8 17,15 4,7 7,14 7,23 0,11 -4,20 -11,27 -7,8 -18,13 -32,15 5,2 9,5 12,7 6,6 11,12 16,21l27 41 -25 0 -21 -32c-5,-9 -10,-16 -14,-21 -4,-5 -7,-8 -10,-10 -3,-2 -7,-3 -10,-4 -2,0 -6,-1 -11,-1l-23 0 0 68 -21 0zm21 -85l43 0c9,0 17,-1 22,-3 5,-2 9,-5 12,-9 2,-5 4,-9 4,-14 0,-7 -3,-13 -8,-18 -5,-5 -14,-7 -25,-7l-48 0 0 51zm128 85l59 -153 22 0 63 153 -23 0 -18 -46 -65 0 -16 46 -22 0zm44 -63l53 0 -16 -42c-5,-13 -9,-24 -11,-32 -3,10 -5,20 -9,29l-17 45zm151 63l0 -135 -51 0 0 -18 121 0 0 18 -50 0 0 135 -20 0zm103 0l0 -153 111 0 0 18 -90 0 0 47 84 0 0 18 -84 0 0 52 94 0 0 18 -115 0zm157 0l0 -21 21 0 0 21c0,8 -1,14 -4,19 -3,5 -7,9 -13,12l-5 -9c4,-1 7,-4 8,-7 2,-4 3,-8 4,-15l-11 0z"/>
   <path class="fil2 str14" d="M5800 3203l0 -153 111 0 0 18 -90 0 0 47 84 0 0 18 -84 0 0 52 93 0 0 18 -114 0zm154 0l0 -153 20 0 0 135 76 0 0 18 -96 0zm132 0l0 -153 111 0 0 18 -90 0 0 47 84 0 0 18 -84 0 0 52 94 0 0 18 -115 0zm199 0l-60 -153 22 0 40 111c3,9 6,18 8,25 3,-8 5,-16 8,-25l42 -111 20 0 -59 153 -21 0zm78 0l59 -153 22 0 63 153 -24 0 -17 -46 -65 0 -16 46 -22 0zm44 -63l52 0 -16 -42c-4,-13 -8,-24 -10,-32 -3,10 -5,20 -9,29l-17 45zm151 63l0 -135 -50 0 0 -18 121 0 0 18 -51 0 0 135 -20 0zm104 0l0 -153 111 0 0 18 -90 0 0 47 84 0 0 18 -84 0 0 52 94 0 0 18 -115 0z"/>
  </g>
  <g>
   <path class="fil1 str15" d="M355 2257l90 0 -140 657 -90 0 140 -657zm235 0l105 0 219 532 114 -532 84 0 -139 657 -100 0 -225 -532 -113 532 -85 0 140 -657zm671 0l457 0 -17 80 -368 0 -42 200 323 0 -17 78 -323 0 -63 299 -90 0 140 -657zm573 0l90 0 -140 657 -90 0 140 -657zm235 0l105 0 220 532 113 -532 85 0 -140 657 -100 0 -225 -532 -113 532 -85 0 140 -657zm683 0l91 0 -140 657 -91 0 140 -657zm715 0l-17 78 -222 0 -123 579 -91 0 124 -579 -222 0 16 -78 535 0zm30 0l104 0 122 316 257 -316 104 0 -333 392 -56 265 -89 0 56 -265 -165 -392zm911 0l481 0 -18 80 -393 0 -42 200 363 0 -16 76 -363 0 -48 223 400 0 -17 78 -486 0 139 -657zm734 581c30,0 55,-3 76,-9 37,-12 70,-34 99,-68 24,-26 44,-60 60,-102 10,-24 17,-47 22,-68 17,-82 14,-145 -9,-190 -23,-45 -70,-68 -142,-68l-158 0 -108 505 160 0zm-126 -581l267 0c91,0 154,32 190,96 33,58 39,132 20,222 -15,70 -42,133 -80,190 -67,99 -158,149 -270,149l-267 0 140 -657zm1101 19c58,34 85,94 82,180l-89 0c0,-48 -15,-83 -44,-105 -29,-22 -69,-33 -121,-33 -61,0 -117,23 -168,69 -52,45 -87,113 -107,204 -16,78 -13,141 11,190 24,50 75,74 153,74 59,0 112,-17 159,-52 46,-34 78,-90 95,-167l-206 0 16 -74 289 0 -75 352 -57 0 -4 -85c-37,34 -69,57 -95,69 -44,22 -96,33 -157,33 -78,0 -139,-25 -185,-75 -48,-63 -60,-150 -36,-261 23,-110 72,-197 146,-262 70,-62 150,-93 240,-93 62,0 113,12 153,36zm282 -19l480 0 -18 80 -393 0 -42 200 364 0 -17 76 -363 0 -48 223 400 0 -16 78 -487 0 140 -657z"/>
   <path id="1" class="fil2" d="M355 2257l90 0 -140 657 -90 0 140 -657zm235 0l105 0 219 532 114 -532 84 0 -139 657 -100 0 -225 -532 -113 532 -85 0 140 -657zm671 0l457 0 -17 80 -368 0 -42 200 323 0 -17 78 -323 0 -63 299 -90 0 140 -657zm573 0l90 0 -140 657 -90 0 140 -657zm235 0l105 0 220 532 113 -532 85 0 -140 657 -100 0 -225 -532 -113 532 -85 0 140 -657zm683 0l91 0 -140 657 -91 0 140 -657zm715 0l-17 78 -222 0 -123 579 -91 0 124 -579 -222 0 16 -78 535 0zm30 0l104 0 122 316 257 -316 104 0 -333 392 -56 265 -89 0 56 -265 -165 -392zm911 0l481 0 -18 80 -393 0 -42 200 363 0 -16 76 -363 0 -48 223 400 0 -17 78 -486 0 139 -657zm734 581c30,0 55,-3 76,-9 37,-12 70,-34 99,-68 24,-26 44,-60 60,-102 10,-24 17,-47 22,-68 17,-82 14,-145 -9,-190 -23,-45 -70,-68 -142,-68l-158 0 -108 505 160 0zm-126 -581l267 0c91,0 154,32 190,96 33,58 39,132 20,222 -15,70 -42,133 -80,190 -67,99 -158,149 -270,149l-267 0 140 -657zm1101 19c58,34 85,94 82,180l-89 0c0,-48 -15,-83 -44,-105 -29,-22 -69,-33 -121,-33 -61,0 -117,23 -168,69 -52,45 -87,113 -107,204 -16,78 -13,141 11,190 24,50 75,74 153,74 59,0 112,-17 159,-52 46,-34 78,-90 95,-167l-206 0 16 -74 289 0 -75 352 -57 0 -4 -85c-37,34 -69,57 -95,69 -44,22 -96,33 -157,33 -78,0 -139,-25 -185,-75 -48,-63 -60,-150 -36,-261 23,-110 72,-197 146,-262 70,-62 150,-93 240,-93 62,0 113,12 153,36zm282 -19l480 0 -18 80 -393 0 -42 200 364 0 -17 76 -363 0 -48 223 400 0 -16 78 -487 0 140 -657z"/>
  </g>
 </g>
</svg>
